/* XPM */
static char *_09b837ebfca46dce6b6ea9a1a5949efkOxadTfeY9ZBJDQF[] = {
/* columns rows colors chars-per-pixel */
"32 32 102 2 ",
"   c #020101",
".  c #0B0101",
"X  c #000804",
"o  c #020309",
"O  c #08020A",
"+  c #130000",
"@  c #1C0100",
"#  c #220200",
"$  c #2B0300",
"%  c #240800",
"&  c #280B00",
"*  c #380000",
"=  c #300C00",
"-  c #3E1400",
";  c #3D1905",
":  c #361A0E",
">  c #431200",
",  c #4A1100",
"<  c #491B05",
"1  c #4C1E0B",
"2  c #561E0A",
"3  c #661D00",
"4  c #47220D",
"5  c #4D250B",
"6  c #5B250B",
"7  c #552E0D",
"8  c #4D2710",
"9  c #562610",
"0  c #572912",
"q  c #5B2C12",
"w  c #7B2E04",
"e  c #683112",
"r  c #6C341B",
"t  c #753E20",
"y  c #65402E",
"u  c #7D4529",
"i  c #6B4634",
"p  c #874225",
"a  c #88452A",
"s  c #854E2C",
"d  c #8E4D2D",
"f  c #91472C",
"g  c #854C31",
"h  c #904A30",
"j  c #8A563E",
"k  c #935234",
"l  c #995535",
"z  c #965C36",
"x  c #9C5835",
"c  c #965338",
"v  c #985739",
"b  c #925C3D",
"n  c #AA592E",
"m  c #BD5A23",
"M  c #B85D2E",
"N  c #A15A36",
"B  c #A1573C",
"V  c #A35B3A",
"C  c #AB5F3D",
"Z  c #B25E37",
"A  c #BE5E36",
"S  c #B25E3C",
"D  c #B95F3A",
"F  c #AB613A",
"G  c #BA6235",
"H  c #B4633C",
"J  c #BA653A",
"K  c #BC683D",
"L  c #C7601E",
"P  c #C65D25",
"I  c #CA5D24",
"U  c #C65F2C",
"Y  c #CB5E2B",
"T  c #D35E29",
"R  c #C45E31",
"E  c #CD5F32",
"W  c #C56126",
"Q  c #CC6226",
"!  c #C6632C",
"~  c #CC632C",
"^  c #CC692F",
"/  c #D16226",
"(  c #D1612C",
")  c #D5682F",
"_  c #C46332",
"`  c #CB6332",
"'  c #CB6934",
"]  c #C3643A",
"[  c #CA633A",
"{  c #C1693B",
"}  c #CD6938",
"|  c #D16333",
" . c #D26933",
".. c #9B634A",
"X. c #AC6342",
"o. c #B56341",
"O. c #BC6441",
"+. c #B36946",
"@. c #BA6D44",
"#. c #B66C49",
"$. c #A26850",
"%. c #C66640",
/* pixels */
"          .       o o     . + & : + . .   o o       . .         ",
"          .     o         . + y i # .         o                 ",
"                          . > ..$.4 +               O           ",
"          O         o . . + u +.#.u @ . .                       ",
".         o           .   ; F { _ F 4 + . O                     ",
"                      . + u J _ ^ J g @ .                       ",
"  .                   . > F _ Q W _ o.2 .                       ",
"                  O   @ p G ! ^ Q ` [ f @   .                   ",
"    O           o O   = H ` ~ ! ~ Y | D 5 . O o     X     o     ",
"    o           o   @ s ` / U ` ` ` T _ s %   o                 ",
"o                 . > H m I ' ` ` ` T ~ H 9 .             o     ",
"    o             @ a K ' ~  .` ` ` I ~ ] h @ .                 ",
"                + < S R  .W P U ' ~ W ) R o.0 +                 ",
"              . # d ] ` ! ^ ' | Y | W ` | ] l # .               ",
"          o   . , Z ! | ! } ~ I I ~ ! _ | ! J 6 + O       .     ",
"          o   + l A ~ W [ R ~ ) ( ~ } _ Q ` R N @               ",
"      .   . . ; H Q Q ~ [ E | ( ` ` ` ` W Q ^ J 8 . .   . .     ",
"o     .   . @ j G W Q ~ ` [ T E E | ` ` ^ W W J b # .   .     X ",
"      .   + 1 X.G ^ ^ ` E E E ( E ` ` ` ^ ! ! _ +.q .   . O   X ",
"X X O . . @ c J _ ^ ` ~ ~ ~ T ( T ( ` ~ Q ^ ! _ G l % .   O   X ",
"        + 1 Z ` ! _ ' ` ( / / ( ( ~ ( ~ ~ ~ Q ' ' H q +         ",
"      + # h _ ) ^ Q ` ` ~ / ( ( ( ( ( ~ ` ` Q ~ T _ v $ .       ",
".   o   , J  .I ~ ~ ~ ~ W ( ( ~ ~ ~ ~ ` ` ` ~ Q Q | O.2 . X     ",
".   X + B [ W Y ~ ` ~ ~ ~ ~ ~ ~ ~ ~ ~ ~ ~ Y ( Q ~ ~ [ X.@     O ",
"      4 J E  .P ` E ( / W ` ^ ~ ` ~ ` ` ~ ( ( W W ` E O.0 .   O ",
"  . @ b G | W ' ` ` ( ~ ~ ^ _ ` _ ~ _ ` ( ( ~ ~ ` | ` _ z & + o ",
". + 6 @._ U ` ` _ ~ ( Y W W ` ` ` _ ` ~ ( ~ ~ _ E | U ' @.e + . ",
"+ @ x M } U | Y ~ ~ ` ~ ~ ^ ` ] ` ` ` ~ ~ ~ ~ ` E ` U ' _ V $ + ",
"@ 6 J _ ' ! Y | ^ ! ~ ~ ~ ~ ` ` ` ` ~ ~ ~ ~ _ ! | Y Q ! U O.r @ ",
"$ v ] ' ! ^ ~ ~ ~ Q ! ^ ~ Y ~ ~ ` ~ T ( ~ ^ ` ` ( ( W ) ` %.V * ",
"3 @.] _ ~ Q ) P ~ ~ ! ^ ( E ( ( ( / ( ~ ! ! ` ` W / I ) ` ] @.w ",
"n J ] ! ) / P ( ~ Q ! Q ` ( ( ( T T / Q ^ ` ` ~ ) L ) Y ` _ ] G "
};
